<svg width="20" height="16" viewBox="0 0 64 64" fill="none" xmlns="http://www.w3.org/2000/svg">
<path d="M51.2 14.4H51.2003C52.4253 14.3998 53.604 14.868 54.4951 15.7086C55.1378 16.3149 55.5957 17.0819 55.8277 17.9213L32 29.8336L8.17231 17.9213C8.40432 17.0819 8.86227 16.3149 9.50496 15.7086C10.396 14.868 11.5747 14.3998 12.7997 14.4H12.8H51.2ZM31.2845 40.2087L32 40.5665L32.7156 40.2087L56 28.5665V44.8001C56 46.0731 55.4943 47.294 54.5941 48.1942C53.694 49.0943 52.4731 49.6001 51.2 49.6001H12.8C11.527 49.6001 10.3061 49.0943 9.40591 48.1942C8.50574 47.294 8.00002 46.0731 8.00002 44.8001V28.5665L31.2845 40.2087Z" fill="white" stroke="white" stroke-width="3.2"/>
</svg>
